<?xml version="1.0" standalone="no"?>
<!DOCTYPE svg PUBLIC "-//W3C//DTD SVG 20010904//EN"
 "http://www.w3.org/TR/2001/REC-SVG-20010904/DTD/svg10.dtd">
<svg version="1.0" xmlns="http://www.w3.org/2000/svg"
 width="180.000000pt" height="180.000000pt" viewBox="0 0 180.000000 180.000000"
 preserveAspectRatio="xMidYMid meet">

<g transform="translate(0.000000,180.000000) scale(0.100000,-0.100000)"
fill="#000000" stroke="none">
<path d="M500 1470 c-20 -20 -20 -33 -20 -579 l0 -560 22 -15 c17 -12 48 -16
120 -16 54 0 98 -4 98 -8 0 -5 12 -14 26 -20 26 -12 60 -3 76 22 16 24 8 64
-17 80 -32 21 -51 20 -75 -4 -18 -18 -31 -20 -113 -18 l-92 3 0 540 0 540 75
0 75 0 5 -195 5 -195 29 0 c31 0 33 2 256 279 36 44 76 86 90 93 28 14 220 18
220 5 0 -4 -26 -39 -57 -77 -32 -37 -71 -85 -88 -106 -16 -21 -75 -93 -130
-159 -55 -67 -116 -141 -135 -164 -19 -24 -63 -77 -96 -118 -67 -82 -78 -105
-67 -135 13 -33 303 -331 338 -348 25 -11 68 -15 183 -15 159 0 177 5 170 49
-3 16 -258 307 -297 337 -9 7 -12 20 -7 37 5 22 3 27 -13 27 -10 0 -33 3 -51
6 -32 7 -32 7 -25 -27 12 -62 15 -68 32 -62 8 3 18 1 22 -4 3 -6 58 -66 123
-134 64 -68 126 -136 138 -151 l21 -28 -138 0 -138 0 -130 134 c-207 213 -189
191 -174 217 7 13 31 46 53 73 41 48 97 116 126 152 45 55 157 191 170 205 8
9 35 42 60 74 25 31 68 84 95 116 28 32 58 72 68 89 17 28 17 30 -3 50 -18 18
-33 20 -137 20 -92 0 -126 -4 -153 -18 -23 -11 -80 -74 -170 -186 l-135 -169
-5 172 c-5 167 -6 174 -29 192 -35 28 -172 28 -201 -1z"/>
</g>
</svg>
