<?xml version="1.0" standalone="no"?>
<!DOCTYPE svg PUBLIC "-//W3C//DTD SVG 20010904//EN"
 "http://www.w3.org/TR/2001/REC-SVG-20010904/DTD/svg10.dtd">
<svg version="1.0" xmlns="http://www.w3.org/2000/svg"
 width="225.000000pt" height="225.000000pt" viewBox="0 0 225.000000 225.000000"
 preserveAspectRatio="xMidYMid meet">

<g transform="translate(0.000000,225.000000) scale(0.100000,-0.100000)"
fill="#000000" stroke="none">
<path d="M161 2229 c-46 -14 -127 -97 -140 -145 -7 -27 -11 -335 -11 -968 0
-919 0 -930 21 -972 23 -49 76 -99 128 -123 32 -14 129 -16 961 -16 1045 0
981 -5 1058 79 71 77 67 21 67 1046 0 832 -2 929 -16 961 -24 52 -74 105 -123
128 -42 21 -52 21 -977 20 -567 0 -947 -5 -968 -10z m641 -268 l33 -29 5 -230
5 -230 50 62 c290 361 318 394 358 417 39 22 54 24 203 27 127 3 168 0 197
-12 41 -16 57 -53 39 -89 -6 -12 -81 -107 -167 -212 -244 -295 -460 -558 -577
-704 -43 -53 -78 -102 -78 -109 0 -16 404 -432 436 -450 17 -9 71 -12 194 -10
l170 3 -171 190 c-239 266 -224 252 -245 231 -9 -10 -20 -14 -24 -9 -9 10 -34
153 -28 159 6 5 146 -21 155 -29 3 -4 -1 -15 -11 -26 -16 -18 -13 -23 71 -112
261 -278 363 -399 363 -428 0 -59 -9 -61 -256 -61 -202 0 -229 2 -262 19 -33
17 -145 130 -395 398 -72 77 -77 85 -77 127 0 53 -49 -11 573 749 l236 287
-140 0 c-136 0 -190 -10 -201 -38 -1 -5 -19 -29 -40 -53 -20 -24 -107 -132
-193 -239 -87 -107 -164 -201 -173 -207 -22 -18 -67 -16 -83 4 -11 12 -15 77
-19 282 l-5 266 -75 3 c-41 2 -85 0 -97 -3 l-23 -5 2 -753 3 -752 119 -3 c114
-3 120 -2 145 21 36 33 59 39 98 26 62 -20 81 -96 37 -148 -34 -41 -88 -43
-132 -6 -29 24 -36 25 -162 25 l-132 0 -29 29 -29 29 0 779 c0 722 2 780 18
799 30 37 54 43 169 44 111 0 113 -1 145 -29z"/>
</g>
</svg>
